PathFileType	4	(X/Y/Z)	5_coords_data.trc
DataRate	CameraRate	NumFrames	NumMarkers	Units	OrigDataRate	OrigDataStartFrame	OrigNumFrames
30.0	30.0	5	21	m	30.0	39	67
Frame#	Time	THUMB_TIP	THUMB_IP	THUMB_MCP	THUMB_CMC	INDEX_TIP	INDEX_DIP	INDEX_PIP	INDEX_MCP	MIDDLE_TIP	MIDDLE_DIP	MIDDLE_PIP	MIDDLE_MCP	RING_TIP	RING_DIP	RING_PIP	RING_MCP	PINKY_TIP	PINKY_DIP	PINKY_PIP	PINKY_MCP	WRIST
X1	Y1	Z1	X2	Y2	Z2	X3	Y3	Z3	X4	Y4	Z4	X5	Y5	Z5	X6	Y6	Z6	X7	Y7	Z7	X8	Y8	Z8	X9	Y9	Z9	X10	Y10	Z10	X11	Y11	Z11	X12	Y12	Z12	X13	Y13	Z13	X14	Y14	Z14	X15	Y15	Z15	X16	Y16	Z16	X17	Y17	Z17	X18	Y18	Z18	X19	Y19	Z19	X20	Y20	Z20	X21	Y21	Z21
37	1.2666666666666608	0.4892273326461992	-0.032037867266662357	-0.16954230275232476	0.48646987533381836	-0.03213013839943779	-0.14673029023241635	0.46617907999683583	-0.028023310746536745	-0.12348727856821828	0.46962952602436725	-0.029001681577442096	-0.07902350440622966	0.5777655498583814	0.02425244939356297	-0.16116837230751455	0.5618358139910126	0.02216153138762067	-0.15280945030235793	0.5400316424906701	0.01926806092973976	-0.1406350605068476	0.5063115891190699	0.006730780998846608	-0.11784447678130733	0.6009117497704994	0.03275435959257711	-0.13383836275379007	0.5841486456348282	0.028153276467484778	-0.12875620043715436	0.5572994640497616	0.0227605525383624	-0.11878376207753538	0.5182444357333937	0.01119669878012397	-0.1004226626968941	0.6050504449836959	0.029512869710812573	-0.10789640258137209	0.5883385186413908	0.026167498575381032	-0.10202102941062041	0.5649106622955342	0.022739464032855095	-0.09430325089519487	0.528156009925115	0.009586350402043697	-0.08377652467359056	0.6016164732313158	0.021946601530966392	-0.07037677403565307	0.5851250707886224	0.01763587461592475	-0.06881111796324704	0.5648099353456835	0.012495404221814943	-0.06751386892689051	0.5308666419671175	0.0003525709262838239	-0.06637901864004853	0.4622830810018608	-0.023011742144276925	-0.05198982011943101
38	1.299999999999994	0.49098160375868083	-0.031821122957127024	-0.16905793511228132	0.4877949287346377	-0.03189102092836438	-0.14630183227008192	0.4669629047643844	-0.028148915010935638	-0.1234798380407088	0.4697760150381176	-0.02906201780283668	-0.07896980935189254	0.5785785003510977	0.02204653117264377	-0.1601596976114273	0.5624485445004107	0.020802267558802545	-0.15201866989287996	0.5403561029537833	0.018891920806546558	-0.1401744968615956	0.5060719679101351	0.007039505713337002	-0.11786408595621006	0.6011978484916565	0.031029427441914725	-0.13362865236569366	0.5842371341312047	0.027278923410031353	-0.12850343160069289	0.5571878673280894	0.02296306821741312	-0.11854752333623797	0.5179416717922234	0.01175098291787613	-0.10037685465849056	0.6052338278264977	0.026811586915649	-0.1082671301981426	0.5883837607963052	0.024640017454642504	-0.10223724403387371	0.5648331630842808	0.022556763476118902	-0.09441360170645607	0.5278042964854911	0.010332300037861342	-0.0837296714345126	0.6019746075040627	0.019916726418965136	-0.07223626175335315	0.58532120858188	0.016572836700646576	-0.0701190215944748	0.5648330651477717	0.012379461636136013	-0.06825794577878594	0.5306832809165125	0.0009446409323249361	-0.06627790450897758	0.4622830810018608	-0.023011742144276925	-0.051989820119430985
39	1.3333333333333275	0.49328106650881387	-0.03184272632468965	-0.16834957949831605	0.4895063911332074	-0.0318364850930154	-0.1456834861680613	0.46799332141439887	-0.02845917406037357	-0.12344384585032053	0.4699983870332006	-0.02915423407797002	-0.07888616858325195	0.5792295122048128	0.019724623647720874	-0.1591391322102374	0.5629351029047225	0.019361550762069246	-0.15124227184419087	0.5405956710211269	0.018471505232497076	-0.13974586218406299	0.5057485742631461	0.007372926682932435	-0.11792528712933381	0.6013331069981209	0.02897888212258004	-0.1335567965516	0.5842057747625571	0.026190537619259713	-0.12837224011701298	0.5569912701655295	0.02309044140157357	-0.11841384200388985	0.5175435968055835	0.012378412292554875	-0.10037828213305278	0.6051612427879823	0.02397924547368946	-0.10866973079437403	0.5882433597616348	0.023094585188295103	-0.10250510508908842	0.5646413067142259	0.022449702685464867	-0.09458631746061638	0.5273537960661654	0.011213738489822545	-0.08371822230713949	0.6021156950873937	0.017794523451792554	-0.074291682609371	0.5853653519745641	0.01554797759876192	-0.0715752442550722	0.5647563943198572	0.012397102468246102	-0.06909434335048151	0.5304343067114462	0.0017034470484298403	-0.06617484220083283	0.4622830810018608	-0.023011742144276925	-0.051989820119430985
40	1.3666666666666607	0.49628557589063704	-0.03190751051554974	-0.1673433251827869	0.49172580751662176	-0.03182012083565178	-0.14482220453084818	0.46937782608743794	-0.02889447961536018	-0.12335529163003761	0.4703433930833203	-0.02926527465805462	-0.0787591013060562	0.5797278910919178	0.01737631203570178	-0.15809647513414182	0.5633156228858947	0.017900104117640536	-0.15045690091901293	0.540776552213013	0.01803858867163821	-0.13932222767588837	0.5053824055443327	0.007743349501332486	-0.11799387738754794	0.601295574478281	0.0267203053245868	-0.1335853014626269	0.5840529070949727	0.024952276181526956	-0.1283351115176926	0.5567285225780074	0.02314628975259969	-0.1183588409826897	0.5170820189387646	0.013066993034341112	-0.10039469758956326	0.6048297298316857	0.021109612607161043	-0.10905084484133462	0.5879340424220846	0.0215586741397924	-0.10277915522074921	0.5643608984660379	0.022397833597507244	-0.09479274961922671	0.526847379886759	0.012157999819738197	-0.08372014549888657	0.6020075708496648	0.015602166507026949	-0.07640963276368146	0.585251259381496	0.014555426188945675	-0.07307341324329397	0.5645890299072561	0.012505847734765041	-0.06996157772161044	0.5301366975741088	0.0025674458932349875	-0.06606948103182436	0.4622830810018609	-0.023011742144276925	-0.051989820119430985
41	1.3999999999999937	0.4999560143261973	-0.0320469967129966	-0.1659646182674462	0.49440925315731266	-0.03186401012830742	-0.14366663727263015	0.47109148214435226	-0.02944962119472716	-0.12319049796209242	0.4708089129107814	-0.02939687097243049	-0.07858324101838102	0.5800490809959288	0.01519321112257943	-0.15704994491188137	0.5635651315010874	0.016574522700240957	-0.14967624927285883	0.5408746097117488	0.017686855092690523	-0.13890996994449978	0.5049856444870294	0.008126253379473813	-0.11807218781731271	0.6010672955202581	0.02443608702717448	-0.13364635467880717	0.5837678689302305	0.02370614234002788	-0.12833626801191023	0.5563948941395934	0.023208430721175177	-0.11834216553817045	0.5165618257159104	0.013808413635024164	-0.10042250427646543	0.6042489041153881	0.01847955724918504	-0.10931286589287048	0.5874594359404748	0.020205585578360497	-0.10297767965958127	0.5639865864775044	0.022463636993953928	-0.09497102487163939	0.5262768183348445	0.013190472374021933	-0.08371479821442973	0.6016256955200355	0.013537678256602459	-0.07841670417089186	0.5849658039779642	0.01370575474573621	-0.07448990342470949	0.5643234528615348	0.012754905159248042	-0.07077490080695437	0.5297907127822173	0.0035359607588409947	-0.06593916117826204	0.4622830810018608	-0.023011742144276925	-0.05198982011943096
